<svg width="33" height="32" viewBox="0 0 33 32" fill="none" xmlns="http://www.w3.org/2000/svg">
<g clip-path="url(#clip0_8_2)">
<path d="M24.4166 14.5C24.4166 14.7472 24.3433 14.9889 24.206 15.1945C24.0686 15.4 23.8734 15.5602 23.645 15.6548C23.4166 15.7495 23.1652 15.7742 22.9228 15.726C22.6803 15.6778 22.4576 15.5587 22.2827 15.3839C22.1079 15.2091 21.9889 14.9863 21.9406 14.7439C21.8924 14.5014 21.9172 14.2501 22.0118 14.0216C22.1064 13.7932 22.2666 13.598 22.4722 13.4607C22.6777 13.3233 22.9194 13.25 23.1666 13.25C23.4981 13.25 23.8161 13.3817 24.0505 13.6161C24.2849 13.8505 24.4166 14.1685 24.4166 14.5ZM19.6666 8.25H14.6666C14.4677 8.25 14.2769 8.32902 14.1363 8.46967C13.9956 8.61032 13.9166 8.80109 13.9166 9C13.9166 9.19891 13.9956 9.38968 14.1363 9.53033C14.2769 9.67098 14.4677 9.75 14.6666 9.75H19.6666C19.8655 9.75 20.0563 9.67098 20.197 9.53033C20.3376 9.38968 20.4166 9.19891 20.4166 9C20.4166 8.80109 20.3376 8.61032 20.197 8.46967C20.0563 8.32902 19.8655 8.25 19.6666 8.25ZM31.4166 14V18C31.4166 18.7293 31.1269 19.4288 30.6112 19.9445C30.0954 20.4603 29.396 20.75 28.6666 20.75H28.1954L26.1104 26.5888C25.9889 26.9287 25.7653 27.2228 25.4701 27.4307C25.1749 27.6386 24.8227 27.7502 24.4616 27.75H22.8716C22.5106 27.7502 22.1583 27.6386 21.8632 27.4307C21.568 27.2228 21.3443 26.9287 21.2229 26.5888L20.9241 25.75H13.4091L13.1104 26.5888C12.9889 26.9287 12.7653 27.2228 12.4701 27.4307C12.1749 27.6386 11.8227 27.7502 11.4616 27.75H9.87163C9.51059 27.7502 9.15834 27.6386 8.86316 27.4307C8.56799 27.2228 8.34434 26.9287 8.22288 26.5888L6.63663 22.1475C5.08102 20.4029 4.13854 18.1975 3.95288 15.8675C3.50562 16.0171 3.11668 16.3035 2.84102 16.6861C2.56535 17.0688 2.4169 17.5284 2.41663 18C2.41663 18.1989 2.33761 18.3897 2.19696 18.5303C2.0563 18.671 1.86554 18.75 1.66663 18.75C1.46771 18.75 1.27695 18.671 1.1363 18.5303C0.995644 18.3897 0.916626 18.1989 0.916626 18C0.916685 17.1315 1.21818 16.29 1.76964 15.6191C2.32111 14.9482 3.08835 14.4894 3.94038 14.3212C4.11586 11.5946 5.32185 9.03673 7.31375 7.16647C9.30564 5.29621 11.9343 4.25356 14.6666 4.25H27.6666C27.8655 4.25 28.0563 4.32902 28.197 4.46967C28.3376 4.61032 28.4166 4.80109 28.4166 5C28.4166 5.19891 28.3376 5.38968 28.197 5.53033C28.0563 5.67098 27.8655 5.75 27.6666 5.75H24.1441C26.0965 6.90441 27.6332 8.64725 28.5341 10.7288C28.6091 10.9013 28.6791 11.075 28.7441 11.2513C29.4597 11.2714 30.1393 11.5699 30.6383 12.0832C31.1374 12.5964 31.4166 13.2841 31.4166 14ZM29.9166 14C29.9166 13.6685 29.7849 13.3505 29.5505 13.1161C29.3161 12.8817 28.9981 12.75 28.6666 12.75H28.2091C28.0494 12.7502 27.8938 12.6993 27.7649 12.6049C27.6361 12.5105 27.5408 12.3774 27.4929 12.225C27.3974 11.9196 27.2856 11.6196 27.1579 11.3263C26.441 9.66966 25.255 8.25901 23.7462 7.26817C22.2374 6.27733 20.4717 5.74959 18.6666 5.75H14.6666C12.8713 5.74982 11.1148 6.27208 9.61124 7.25308C8.10768 8.23408 6.92208 9.63142 6.19905 11.2747C5.47602 12.9179 5.24681 14.7361 5.53936 16.5074C5.83191 18.2786 6.63359 19.9265 7.84663 21.25C7.91391 21.3221 7.9658 21.4072 7.99913 21.5L9.63538 26.08C9.65208 26.1295 9.68384 26.1724 9.72621 26.2029C9.76858 26.2334 9.81943 26.2499 9.87163 26.25H11.4616C11.5134 26.2501 11.5639 26.2342 11.6062 26.2045C11.6485 26.1747 11.6805 26.1325 11.6979 26.0837L12.1741 24.75C12.2258 24.6039 12.3214 24.4774 12.4479 24.3879C12.5743 24.2983 12.7254 24.2502 12.8804 24.25H21.4529C21.6078 24.2502 21.7589 24.2983 21.8854 24.3879C22.0118 24.4774 22.1075 24.6039 22.1591 24.75L22.6354 26.0863C22.6527 26.135 22.6847 26.1772 22.7271 26.207C22.7694 26.2367 22.8199 26.2526 22.8716 26.2525H24.4616C24.5134 26.2526 24.5639 26.2367 24.6062 26.207C24.6485 26.1772 24.6805 26.135 24.6979 26.0863L26.9604 19.75C27.012 19.6039 27.1077 19.4774 27.2341 19.3879C27.3606 19.2983 27.5117 19.2502 27.6666 19.25H28.6666C28.9981 19.25 29.3161 19.1183 29.5505 18.8839C29.7849 18.6495 29.9166 18.3315 29.9166 18V14Z" fill="white"/>
</g>
<defs>
<clipPath id="clip0_8_2">
<rect width="32" height="32" fill="white" transform="translate(0.666626)"/>
</clipPath>
</defs>
</svg>
